# xmcd CD database file
#
# Track frame offsets:
#	150
#	28445
#	49650
#	66537
#	82087
#	94565
#	112855
#	133525
#	150752
#	170782
#
# Disc length: 2530 seconds
#
# Revision: 0
# Processed by: cddbd v1.5.1PL0 Copyright (c) Steve Scherf et al.
# Submitted via: CDex 1.51
#
DISCID=8009e00a
DTITLE=Various Artist - 喫茶ロック At.日比谷野外音楽堂 レディメイド編
DYEAR=2002
DGENRE=Pop
TTITLE0=花田裕之 - ケンとメリー
TTITLE1=花田裕之 - みちくさ
TTITLE2=ムッシュかまやつ - ソー・ロング・サチオ
TTITLE3=ムッシュかまやつ - いつまでもどこまでも
TTITLE4=高遠彩子 - 白い森
TTITLE5=高遠彩子 - 愛を育てる
TTITLE6=石川セリ - 私の宝物
TTITLE7=樋口康雄 With 石川セリ - I Love You
TTITLE8=大野真澄 - 学生街の喫茶店
TTITLE9=大野真澄 - 地球はメリーゴーランド
EXTD=YEAR: 2002
EXTT0=
EXTT1=
EXTT2=
EXTT3=
EXTT4=
EXTT5=
EXTT6=
EXTT7=
EXTT8=
EXTT9=
PLAYORDER=
